<?xml version="1.0" standalone="no"?>
<!DOCTYPE svg PUBLIC "-//W3C//DTD SVG 20010904//EN"
 "http://www.w3.org/TR/2001/REC-SVG-20010904/DTD/svg10.dtd">
<svg version="1.0" xmlns="http://www.w3.org/2000/svg"
 width="984.000000pt" height="984.000000pt" viewBox="0 0 984.000000 984.000000"
 preserveAspectRatio="xMidYMid meet">
<metadata>
Created by potrace 1.14, written by Peter Selinger 2001-2017
</metadata>
<g transform="translate(0.000000,984.000000) scale(0.100000,-0.100000)"
fill="#000000" stroke="none">
<path d="M1275 9809 c-102 -36 -187 -118 -216 -209 -26 -83 -12 -208 32 -286
25 -45 100 -148 111 -152 4 -2 8 -8 8 -13 0 -8 18 -33 88 -124 117 -152 219
-294 215 -299 -4 -3 -1 -6 5 -6 6 0 41 -42 78 -92 37 -51 70 -95 73 -98 4 -3
15 -18 24 -33 10 -16 25 -36 32 -45 8 -9 45 -58 82 -108 38 -51 78 -105 90
-120 12 -16 43 -58 70 -94 26 -36 51 -69 56 -75 9 -11 96 -128 332 -445 88
-118 162 -217 165 -220 3 -3 16 -21 30 -40 13 -19 28 -39 32 -45 5 -5 32 -41
60 -80 29 -38 55 -71 60 -73 4 -2 8 -10 8 -18 0 -8 7 -17 15 -20 8 -4 15 -11
15 -16 0 -10 70 -101 83 -106 4 -2 7 -10 7 -17 0 -7 3 -15 8 -17 4 -1 32 -37
62 -78 30 -41 63 -84 72 -94 10 -11 18 -23 18 -27 0 -4 6 -14 13 -21 7 -7 53
-67 102 -133 49 -66 93 -124 98 -130 4 -5 28 -38 52 -72 l45 -63 -19 -42 c-43
-95 -52 -132 -55 -228 -6 -172 52 -320 174 -441 60 -60 95 -86 161 -117 46
-22 100 -44 119 -48 49 -10 252 -13 270 -4 8 4 40 16 70 25 30 10 82 34 115
54 63 38 170 139 180 172 4 10 10 19 14 19 7 0 23 32 52 105 13 33 13 31 28
96 9 42 9 214 -2 249 -2 8 -7 29 -12 45 -17 63 -77 166 -131 225 -68 72 -171
144 -224 154 -3 1 -10 4 -16 8 -6 4 -22 9 -37 12 -15 4 -39 9 -54 13 -32 7
-193 9 -237 2 -28 -4 -34 3 -127 146 -106 163 -193 298 -212 330 -7 11 -14 22
-17 25 -11 11 -50 70 -50 75 0 6 -41 67 -51 75 -3 3 -12 16 -19 30 -7 13 -43
70 -79 125 -36 55 -68 104 -71 110 -3 5 -26 42 -51 80 -25 39 -81 124 -124
190 -42 66 -85 131 -94 144 -19 29 -15 23 -120 185 -46 72 -98 154 -116 181
-18 28 -61 95 -97 150 -36 55 -95 147 -133 205 -37 58 -90 137 -116 177 -27
40 -49 75 -49 78 0 3 -16 27 -35 54 -19 26 -35 53 -35 59 0 6 -4 12 -9 14 -5
2 -17 17 -27 35 -42 70 -179 278 -186 281 -5 2 -8 8 -8 12 0 5 -31 57 -70 114
-38 58 -70 109 -70 114 0 18 -117 130 -162 156 -55 32 -72 36 -163 42 -54 4
-84 0 -130 -17z"/>
<path d="M8235 9369 c-63 -22 -108 -51 -157 -103 -27 -28 -88 -112 -88 -120 0
-3 -28 -47 -81 -126 -57 -87 -159 -244 -159 -246 0 -2 -17 -29 -39 -61 -124
-187 -191 -292 -191 -301 0 -6 -4 -12 -8 -14 -4 -1 -52 -73 -107 -158 -55 -85
-103 -156 -107 -158 -5 -2 -8 -8 -8 -12 0 -8 -166 -270 -187 -295 -5 -5 -26
-39 -48 -75 -21 -36 -42 -67 -45 -70 -3 -3 -26 -36 -49 -75 -24 -38 -48 -73
-53 -76 -6 -3 -10 -10 -10 -15 -1 -9 -46 -80 -167 -264 -31 -47 -58 -89 -61
-95 -3 -5 -35 -55 -71 -110 -36 -55 -119 -183 -184 -285 -66 -102 -123 -186
-127 -188 -5 -2 -8 -8 -8 -13 0 -7 -105 -174 -128 -204 -4 -5 -18 -27 -31 -48
-37 -60 -47 -67 -89 -60 -49 8 -168 8 -212 0 -121 -22 -252 -93 -325 -176 -16
-19 -35 -40 -41 -46 -25 -24 -80 -132 -100 -195 -17 -51 -21 -90 -21 -180 0
-63 3 -119 7 -125 4 -5 10 -23 14 -40 10 -38 57 -139 68 -143 4 -2 8 -8 8 -13
0 -15 120 -149 134 -149 3 0 26 -14 51 -31 161 -109 412 -116 597 -17 73 39
167 123 210 190 33 51 75 141 84 179 2 11 7 29 10 42 22 88 3 260 -41 354
l-25 55 22 32 c40 56 172 231 178 236 4 3 9 10 11 15 2 6 105 145 228 310 123
165 271 363 329 440 57 77 113 153 125 169 12 16 33 44 47 61 14 18 32 43 40
55 8 12 23 31 32 43 9 12 38 51 65 87 26 36 56 74 65 84 10 11 18 23 18 27 0
3 13 22 30 40 16 19 30 37 30 41 0 4 6 13 13 20 7 7 115 152 241 321 125 169
235 314 242 322 8 7 14 17 14 20 0 8 70 97 85 107 7 5 7 8 0 8 -7 0 -7 3 0 8
6 4 57 70 115 147 57 77 108 142 112 143 4 2 8 9 8 16 0 8 10 24 23 37 33 34
127 167 127 179 0 5 5 10 10 10 6 0 9 3 8 8 0 4 1 14 5 22 5 14 16 57 23 90
52 245 -210 455 -461 369z"/>
<path d="M4707 7704 c-1 -1 -85 -5 -187 -9 -245 -10 -333 -15 -480 -29 -25 -3
-77 -7 -117 -11 -39 -4 -80 -8 -90 -10 -10 -1 -51 -6 -91 -10 -40 -4 -71 -10
-70 -14 2 -3 10 -19 18 -36 8 -16 17 -32 20 -35 10 -9 140 -210 140 -216 0 -3
11 -19 24 -35 13 -15 26 -33 28 -39 2 -6 12 -11 23 -12 21 -1 140 9 210 17
129 16 486 28 800 28 390 0 701 -15 995 -49 19 -2 60 -6 90 -9 30 -3 64 -7 75
-9 13 -2 27 9 42 31 13 19 23 36 23 38 0 2 17 30 39 62 95 144 156 242 149
244 -17 4 -194 28 -253 34 -63 7 -108 12 -165 19 -66 7 -239 22 -375 30 -191
12 -839 28 -848 20z"/>
<path d="M1885 7169 c-131 -58 -178 -79 -195 -89 -8 -5 -35 -19 -60 -31 -25
-12 -57 -31 -72 -41 -16 -11 -28 -17 -28 -14 0 5 -48 -23 -170 -102 -321 -207
-556 -472 -644 -728 -15 -43 -28 -87 -29 -96 -1 -10 -4 -18 -7 -18 -3 0 -7
-10 -8 -22 -2 -13 -6 -978 -8 -2145 -3 -1502 -1 -2130 7 -2150 6 -15 12 -36
14 -45 7 -34 99 -214 144 -281 25 -38 51 -76 56 -84 6 -9 17 -24 25 -33 8 -9
34 -40 58 -68 43 -51 137 -147 184 -188 65 -56 207 -164 216 -164 6 0 12 -4
14 -8 7 -18 256 -172 277 -172 5 0 11 -3 13 -7 8 -20 477 -233 511 -233 7 0
17 -3 20 -7 10 -10 291 -106 345 -118 9 -2 49 -14 87 -25 39 -12 88 -26 110
-31 22 -5 58 -14 80 -20 22 -6 52 -12 67 -14 14 -2 31 -5 36 -9 5 -3 24 -8 43
-11 19 -3 62 -12 95 -20 62 -14 101 -23 139 -30 11 -2 47 -9 80 -15 33 -6 74
-13 90 -16 17 -2 41 -7 55 -11 14 -3 39 -7 55 -8 17 -1 30 -3 30 -4 0 -2 14
-4 30 -6 17 -1 48 -6 70 -9 87 -14 102 -16 145 -22 25 -3 59 -7 75 -9 50 -4
148 -16 185 -21 19 -3 67 -7 105 -10 39 -2 95 -7 125 -10 156 -15 315 -19 725
-19 248 1 504 4 570 8 66 4 145 9 175 11 52 3 137 11 240 22 25 2 68 6 95 9
47 4 74 7 163 21 20 3 55 7 77 9 22 3 81 12 130 20 50 9 97 17 105 17 8 0 58
9 111 19 52 10 111 21 130 23 18 3 34 5 34 6 0 1 7 3 15 5 18 3 132 28 143 31
4 1 8 2 10 4 1 1 11 3 21 5 49 9 163 37 186 46 14 5 36 11 50 14 27 5 100 27
195 57 33 11 67 21 75 23 25 6 243 86 285 104 11 5 45 19 75 31 64 26 278 126
300 141 8 5 31 17 50 25 19 9 37 19 40 23 7 9 41 29 68 41 12 5 28 14 35 20 6
6 48 34 92 63 44 29 87 59 97 67 9 8 23 20 30 25 159 120 330 302 431 461 53
83 117 216 142 294 10 30 21 65 26 78 13 34 11 4214 -2 4277 -6 28 -12 57 -13
65 -2 18 -24 86 -36 115 -5 11 -18 42 -30 70 -112 265 -473 594 -867 791 -32
16 -61 34 -65 39 -4 6 -8 7 -8 3 0 -4 -25 6 -57 22 -62 32 -59 33 -100 -32
-10 -16 -21 -28 -25 -28 -4 0 -8 -7 -8 -15 0 -8 -4 -15 -9 -15 -4 0 -20 -18
-35 -40 -15 -22 -33 -48 -41 -58 -29 -36 -85 -112 -85 -117 0 -2 28 -16 63
-32 101 -45 298 -147 359 -187 32 -20 60 -36 63 -36 3 0 18 -11 33 -25 15 -14
30 -25 33 -25 11 0 132 -99 191 -157 32 -31 76 -80 99 -109 49 -64 119 -199
119 -231 0 -12 4 -24 10 -28 9 -5 8 -194 -2 -225 -23 -77 -77 -195 -97 -210
-3 -3 -19 -22 -35 -44 -33 -44 -123 -136 -181 -185 -50 -42 -205 -150 -265
-184 -90 -52 -375 -193 -410 -202 -3 -1 -18 -7 -35 -14 -16 -7 -73 -29 -125
-47 -52 -19 -102 -37 -110 -41 -8 -3 -17 -7 -20 -8 -10 -2 -116 -37 -130 -42
-8 -3 -19 -7 -25 -8 -9 -2 -90 -26 -225 -66 -19 -6 -42 -11 -50 -13 -8 -1 -24
-5 -35 -9 -11 -3 -31 -8 -45 -11 -14 -3 -50 -11 -80 -19 -30 -9 -68 -18 -85
-21 -16 -2 -77 -14 -135 -26 -58 -11 -121 -23 -140 -26 -43 -6 -78 -12 -105
-18 -11 -2 -42 -7 -70 -10 -27 -4 -57 -9 -65 -11 -8 -3 -37 -7 -64 -9 -27 -3
-85 -10 -130 -17 -44 -6 -99 -12 -121 -14 -22 -2 -65 -7 -95 -10 -88 -10 -216
-20 -385 -30 -440 -25 -891 -22 -1315 11 -185 14 -170 12 -320 29 -25 3 -65 8
-90 11 -25 4 -58 8 -75 10 -60 7 -111 13 -140 18 -16 3 -48 8 -70 11 -22 4
-51 8 -65 11 -14 2 -41 7 -60 10 -34 5 -161 28 -210 39 -14 2 -50 10 -80 16
-30 5 -68 14 -85 19 -16 5 -41 11 -55 14 -14 2 -45 9 -70 16 -25 6 -61 15 -80
20 -78 18 -162 43 -300 87 -80 26 -149 47 -155 49 -5 1 -46 16 -90 34 -44 17
-84 33 -90 34 -5 2 -27 10 -47 20 -21 9 -40 16 -44 16 -3 0 -79 36 -167 79
-161 79 -349 186 -355 202 -2 5 -8 9 -14 9 -15 0 -188 142 -238 196 -99 106
-148 184 -185 294 -32 94 -31 243 3 331 93 237 329 450 721 648 89 44 163 81
166 81 3 0 25 9 51 20 25 11 48 20 51 20 3 0 19 6 36 14 18 8 49 22 70 30 34
14 51 36 27 36 -5 0 -10 4 -10 10 0 9 -19 35 -47 65 -7 8 -13 18 -13 23 0 6
-3 12 -7 14 -5 2 -35 39 -67 83 -33 44 -66 86 -73 93 -7 7 -13 18 -13 23 0 13
-7 11 -105 -32z m-675 -2222 c105 -83 325 -220 452 -282 51 -26 104 -52 118
-60 14 -7 61 -27 105 -45 44 -17 94 -37 110 -44 25 -12 75 -30 255 -94 8 -3
22 -6 30 -8 9 -2 32 -10 53 -19 l37 -15 0 -445 c0 -349 -3 -445 -12 -446 -36
-2 -74 -12 -97 -24 -38 -20 -87 -75 -99 -113 -8 -23 -12 -263 -12 -790 l0
-757 30 -51 c34 -60 79 -91 144 -100 l46 -7 0 -418 0 -419 -27 12 c-16 6 -42
17 -60 24 -17 8 -34 14 -37 14 -4 0 -23 7 -44 17 -43 19 -39 17 -74 27 -16 5
-28 12 -28 17 0 5 -7 9 -15 9 -21 0 -290 139 -374 194 -40 25 -74 46 -77 46
-3 0 -10 4 -17 10 -7 5 -46 36 -87 67 -108 83 -168 139 -270 253 -59 66 -192
280 -173 280 3 0 0 7 -8 16 -10 12 -13 320 -13 1622 -1 884 0 1615 2 1624 3
14 16 7 66 -33 33 -28 68 -56 76 -62z m7562 -1519 l0 -1623 -21 -53 c-39 -99
-127 -247 -178 -300 -10 -10 -32 -34 -49 -53 -55 -60 -147 -143 -217 -194 -38
-28 -74 -56 -82 -62 -7 -7 -16 -13 -20 -13 -3 0 -19 -9 -35 -20 -17 -11 -43
-29 -58 -39 -37 -25 -280 -149 -352 -180 -150 -65 -174 -75 -185 -76 -5 -1
-23 -7 -39 -14 -37 -15 -65 -18 -65 -8 -1 4 -1 198 -1 431 l0 423 45 6 c73 10
123 49 155 120 19 40 19 75 20 792 0 734 -4 825 -32 825 -4 0 -8 5 -8 11 0 26
-91 80 -142 84 -15 1 -31 4 -34 8 -6 5 -9 784 -5 872 1 16 17 25 79 44 93 30
354 129 436 165 32 14 65 26 72 26 8 0 14 5 14 10 0 6 5 10 10 10 12 0 162 71
170 81 3 3 25 17 50 30 102 58 128 74 200 123 41 28 77 53 80 56 3 3 32 25 65
50 33 24 73 56 90 72 16 15 31 25 33 23 3 -2 4 -734 4 -1627z m-5872 815 c8
-4 26 -8 40 -10 14 -2 46 -8 71 -14 57 -13 63 -14 119 -23 25 -4 52 -8 60 -10
8 -1 24 -5 35 -9 11 -3 38 -8 60 -11 22 -3 51 -8 65 -11 14 -3 45 -7 70 -10
48 -6 85 -12 85 -15 0 -1 16 -3 35 -5 19 -3 51 -6 70 -9 19 -2 58 -7 85 -10
28 -3 61 -8 75 -11 14 -2 54 -7 90 -10 36 -3 74 -7 85 -9 11 -2 61 -7 110 -10
50 -4 110 -9 135 -11 51 -5 258 -15 400 -20 52 -2 98 -4 101 -4 9 -1 18 -51
10 -55 -3 -2 -4 -39 -1 -81 3 -42 2 -79 -2 -81 -3 -2 -3 -18 2 -34 5 -18 5
-32 -1 -36 -5 -3 -7 -10 -3 -15 7 -11 10 -107 3 -113 -2 -2 -2 -48 1 -101 3
-53 3 -98 0 -100 -3 -2 -3 -36 0 -75 3 -39 2 -74 -2 -76 -3 -2 -3 -17 2 -34 6
-21 4 -32 -6 -41 -8 -6 -14 -8 -14 -4 0 4 -6 2 -13 -4 -8 -6 -16 -8 -19 -5 -9
8 -80 -31 -105 -58 -54 -59 -53 -39 -54 -847 -1 -410 2 -759 6 -776 16 -60 85
-131 138 -141 7 -1 22 -4 34 -6 12 -2 25 -7 28 -10 7 -7 11 -116 4 -123 -3 -2
-2 -30 1 -60 3 -31 4 -58 1 -60 -4 -2 -4 -38 -1 -80 3 -42 3 -78 0 -80 -3 -2
-3 -56 0 -120 3 -64 4 -118 2 -120 -4 -3 -5 -224 -1 -241 1 -5 1 -17 0 -27 -1
-17 -11 -18 -153 -12 -84 3 -175 8 -203 10 -150 11 -214 16 -252 20 -87 10
-129 15 -178 21 -27 3 -63 7 -80 9 -41 4 -108 14 -180 27 -33 5 -76 12 -95 14
-19 2 -46 6 -60 9 -14 3 -41 8 -60 11 -35 5 -365 71 -404 81 -68 16 -105 25
-136 33 -19 5 -51 13 -70 17 l-35 9 -1 487 -1 487 28 0 c16 0 30 -1 32 -1 1
-1 20 7 43 19 55 28 97 82 109 142 15 73 12 1494 -3 1540 -22 66 -97 130 -160
135 -20 2 -40 3 -43 4 -7 1 -9 761 -3 772 4 6 70 -6 104 -18z m4148 -355 c0
-205 -1 -380 -4 -388 -2 -10 -18 -16 -45 -17 -66 -4 -135 -61 -159 -133 -13
-39 -15 -150 -14 -795 l1 -750 22 -43 c28 -56 90 -100 151 -108 l48 -6 0 -487
c0 -267 1 -492 3 -500 4 -15 -34 -30 -63 -25 -10 1 -18 -2 -18 -8 0 -5 -8 -8
-17 -7 -10 1 -25 -1 -33 -4 -8 -3 -26 -8 -40 -10 -14 -3 -36 -8 -50 -11 -14
-4 -38 -9 -55 -11 -16 -3 -38 -8 -48 -11 -11 -3 -29 -7 -40 -9 -44 -6 -102
-17 -107 -20 -3 -2 -24 -6 -46 -9 -22 -4 -51 -9 -64 -11 -14 -3 -43 -8 -65
-11 -55 -7 -97 -14 -115 -19 -8 -3 -37 -7 -64 -9 -27 -3 -83 -10 -125 -15
-234 -31 -380 -44 -656 -56 -298 -13 -296 -13 -305 10 -4 11 -5 24 -2 30 9 15
8 105 -1 105 -5 0 -5 6 -1 12 11 17 11 108 1 108 -5 0 -5 6 -1 12 11 17 11
108 1 108 -5 0 -5 6 -1 12 11 17 11 108 1 108 -5 0 -5 6 -1 12 11 17 11 108 1
108 -5 0 -5 6 -1 12 11 17 11 108 1 108 -5 0 -5 6 0 13 4 6 7 48 8 92 0 79 0
79 27 82 37 2 95 31 124 60 57 57 56 33 55 848 0 413 -2 760 -5 772 -17 76
-102 153 -169 153 -26 0 -52 22 -40 34 10 10 10 106 0 106 -5 0 -5 6 -1 12 11
17 11 108 1 108 -5 0 -5 6 -1 12 11 17 11 108 1 108 -5 0 -5 6 -1 12 11 17 11
108 1 108 -5 0 -5 6 -1 12 11 17 11 108 1 108 -5 0 -5 6 -1 12 11 18 11 108 0
108 -6 0 -5 5 0 10 6 6 9 31 6 55 -3 39 -1 45 15 46 10 0 59 2 108 4 106 3
311 14 375 20 79 7 214 18 255 20 22 2 40 4 40 5 0 1 14 3 30 4 46 4 157 17
185 21 14 2 45 7 70 10 25 3 56 8 70 10 14 2 43 7 65 9 22 3 64 10 93 16 29 5
56 9 60 8 4 -1 21 1 37 5 42 10 74 16 115 23 19 3 44 7 55 9 11 3 43 9 70 15
61 13 82 17 115 25 14 3 36 7 50 10 14 3 39 9 55 14 17 4 33 7 36 5 3 -2 7
-171 7 -376z"/>
</g>
</svg>
